<mxfile host="app.diagrams.net" modified="2023-05-12T17:02:11.117Z" agent="Mozilla/5.0 (Windows NT 10.0; Win64; x64) AppleWebKit/537.36 (KHTML, like Gecko) Chrome/113.0.0.0 Safari/537.36" etag="q379TAsmhjZ77OuNMTOu" version="21.2.3" type="device">
  <diagram name="Page-1" id="WotUuyaitGmkE3_OeTLc">
    <mxGraphModel dx="1050" dy="549" grid="1" gridSize="10" guides="1" tooltips="1" connect="1" arrows="1" fold="1" page="1" pageScale="1" pageWidth="850" pageHeight="1100" math="0" shadow="0">
      <root>
        <mxCell id="0" />
        <mxCell id="1" parent="0" />
        <mxCell id="Da9_TrOvXYw4nECXBY8P-10" value="Pokemon" style="swimlane;fontStyle=1;align=center;verticalAlign=top;childLayout=stackLayout;horizontal=1;startSize=26;horizontalStack=0;resizeParent=1;resizeParentMax=0;resizeLast=0;collapsible=1;marginBottom=0;whiteSpace=wrap;html=1;fillColor=#ffe6cc;strokeColor=#d79b00;rounded=1;" parent="1" vertex="1">
          <mxGeometry x="285" y="86" width="280" height="34" as="geometry" />
        </mxCell>
        <mxCell id="Da9_TrOvXYw4nECXBY8P-12" value="" style="line;strokeWidth=1;fillColor=none;align=left;verticalAlign=middle;spacingTop=-1;spacingLeft=3;spacingRight=3;rotatable=0;labelPosition=right;points=[];portConstraint=eastwest;strokeColor=inherit;" parent="Da9_TrOvXYw4nECXBY8P-10" vertex="1">
          <mxGeometry y="26" width="280" height="8" as="geometry" />
        </mxCell>
        <mxCell id="Da9_TrOvXYw4nECXBY8P-14" value="electricPokemon" style="swimlane;fontStyle=1;align=center;verticalAlign=top;childLayout=stackLayout;horizontal=1;startSize=26;horizontalStack=0;resizeParent=1;resizeParentMax=0;resizeLast=0;collapsible=1;marginBottom=0;whiteSpace=wrap;html=1;fillColor=#e1d5e7;strokeColor=#9673a6;rounded=1;" parent="1" vertex="1">
          <mxGeometry x="200" y="260" width="160" height="60" as="geometry" />
        </mxCell>
        <mxCell id="Da9_TrOvXYw4nECXBY8P-15" value="public: Pokemon" style="text;strokeColor=#9673a6;fillColor=#e1d5e7;align=left;verticalAlign=top;spacingLeft=4;spacingRight=4;overflow=hidden;rotatable=0;points=[[0,0.5],[1,0.5]];portConstraint=eastwest;whiteSpace=wrap;html=1;rounded=1;" parent="Da9_TrOvXYw4nECXBY8P-14" vertex="1">
          <mxGeometry y="26" width="160" height="26" as="geometry" />
        </mxCell>
        <mxCell id="Da9_TrOvXYw4nECXBY8P-16" value="" style="line;strokeWidth=1;fillColor=none;align=left;verticalAlign=middle;spacingTop=-1;spacingLeft=3;spacingRight=3;rotatable=0;labelPosition=right;points=[];portConstraint=eastwest;strokeColor=inherit;" parent="Da9_TrOvXYw4nECXBY8P-14" vertex="1">
          <mxGeometry y="52" width="160" height="8" as="geometry" />
        </mxCell>
        <mxCell id="Da9_TrOvXYw4nECXBY8P-24" value="Arena" style="swimlane;fontStyle=1;align=center;verticalAlign=top;childLayout=stackLayout;horizontal=1;startSize=26;horizontalStack=0;resizeParent=1;resizeParentMax=0;resizeLast=0;collapsible=1;marginBottom=0;whiteSpace=wrap;html=1;fillColor=#dae8fc;strokeColor=#6c8ebf;rounded=1;" parent="1" vertex="1">
          <mxGeometry x="345" y="400" width="160" height="124" as="geometry" />
        </mxCell>
        <mxCell id="Da9_TrOvXYw4nECXBY8P-26" value="" style="line;strokeWidth=1;fillColor=none;align=left;verticalAlign=middle;spacingTop=-1;spacingLeft=3;spacingRight=3;rotatable=0;labelPosition=right;points=[];portConstraint=eastwest;strokeColor=inherit;" parent="Da9_TrOvXYw4nECXBY8P-24" vertex="1">
          <mxGeometry y="26" width="160" height="8" as="geometry" />
        </mxCell>
        <mxCell id="Da9_TrOvXYw4nECXBY8P-27" value="electricPokemon* elecpoke&lt;br&gt;psychicPokemon* psypoke" style="text;strokeColor=#6c8ebf;fillColor=#dae8fc;align=left;verticalAlign=top;spacingLeft=4;spacingRight=4;overflow=hidden;rotatable=0;points=[[0,0.5],[1,0.5]];portConstraint=eastwest;whiteSpace=wrap;html=1;rounded=1;" parent="Da9_TrOvXYw4nECXBY8P-24" vertex="1">
          <mxGeometry y="34" width="160" height="90" as="geometry" />
        </mxCell>
        <mxCell id="Da9_TrOvXYw4nECXBY8P-28" value="psychicPokemon" style="swimlane;fontStyle=1;align=center;verticalAlign=top;childLayout=stackLayout;horizontal=1;startSize=26;horizontalStack=0;resizeParent=1;resizeParentMax=0;resizeLast=0;collapsible=1;marginBottom=0;whiteSpace=wrap;html=1;fillColor=#e1d5e7;strokeColor=#9673a6;rounded=1;" parent="1" vertex="1">
          <mxGeometry x="480" y="260" width="160" height="60" as="geometry" />
        </mxCell>
        <mxCell id="Da9_TrOvXYw4nECXBY8P-29" value="public: Pokemon" style="text;strokeColor=#9673a6;fillColor=#e1d5e7;align=left;verticalAlign=top;spacingLeft=4;spacingRight=4;overflow=hidden;rotatable=0;points=[[0,0.5],[1,0.5]];portConstraint=eastwest;whiteSpace=wrap;html=1;rounded=1;" parent="Da9_TrOvXYw4nECXBY8P-28" vertex="1">
          <mxGeometry y="26" width="160" height="26" as="geometry" />
        </mxCell>
        <mxCell id="Da9_TrOvXYw4nECXBY8P-30" value="" style="line;strokeWidth=1;fillColor=none;align=left;verticalAlign=middle;spacingTop=-1;spacingLeft=3;spacingRight=3;rotatable=0;labelPosition=right;points=[];portConstraint=eastwest;strokeColor=inherit;" parent="Da9_TrOvXYw4nECXBY8P-28" vertex="1">
          <mxGeometry y="52" width="160" height="8" as="geometry" />
        </mxCell>
        <mxCell id="wHszx3qSOF5Lbsmlq4sY-1" value="" style="endArrow=block;endSize=16;endFill=0;html=1;rounded=0;exitX=0.5;exitY=0;exitDx=0;exitDy=0;" edge="1" parent="1" source="Da9_TrOvXYw4nECXBY8P-14" target="Da9_TrOvXYw4nECXBY8P-13">
          <mxGeometry width="160" relative="1" as="geometry">
            <mxPoint x="110" y="504.5" as="sourcePoint" />
            <mxPoint x="150" y="188.4000244140625" as="targetPoint" />
            <Array as="points" />
          </mxGeometry>
        </mxCell>
        <mxCell id="wHszx3qSOF5Lbsmlq4sY-2" value="" style="endArrow=block;endSize=16;endFill=0;html=1;rounded=0;exitX=0.5;exitY=0;exitDx=0;exitDy=0;entryX=0.658;entryY=1.017;entryDx=0;entryDy=0;entryPerimeter=0;" edge="1" parent="1" source="Da9_TrOvXYw4nECXBY8P-28" target="Da9_TrOvXYw4nECXBY8P-13">
          <mxGeometry width="160" relative="1" as="geometry">
            <mxPoint x="570" y="230" as="sourcePoint" />
            <mxPoint x="470" y="200" as="targetPoint" />
          </mxGeometry>
        </mxCell>
        <mxCell id="wHszx3qSOF5Lbsmlq4sY-5" value="" style="endArrow=diamondThin;endFill=0;endSize=24;html=1;rounded=0;entryX=0.071;entryY=-0.031;entryDx=0;entryDy=0;exitX=0.5;exitY=1;exitDx=0;exitDy=0;entryPerimeter=0;" edge="1" parent="1" source="Da9_TrOvXYw4nECXBY8P-14" target="Da9_TrOvXYw4nECXBY8P-24">
          <mxGeometry width="160" relative="1" as="geometry">
            <mxPoint x="20" y="400" as="sourcePoint" />
            <mxPoint x="180" y="400" as="targetPoint" />
          </mxGeometry>
        </mxCell>
        <mxCell id="wHszx3qSOF5Lbsmlq4sY-6" value="" style="endArrow=diamondThin;endFill=0;endSize=24;html=1;rounded=0;entryX=0.956;entryY=-0.018;entryDx=0;entryDy=0;exitX=0.5;exitY=1;exitDx=0;exitDy=0;entryPerimeter=0;" edge="1" parent="1" source="Da9_TrOvXYw4nECXBY8P-28" target="Da9_TrOvXYw4nECXBY8P-24">
          <mxGeometry width="160" relative="1" as="geometry">
            <mxPoint x="550" y="440" as="sourcePoint" />
            <mxPoint x="710" y="440" as="targetPoint" />
          </mxGeometry>
        </mxCell>
        <mxCell id="Da9_TrOvXYw4nECXBY8P-13" value="Pokemon();" style="text;strokeColor=#d79b00;fillColor=#ffe6cc;align=left;verticalAlign=top;spacingLeft=4;spacingRight=4;overflow=hidden;rotatable=0;points=[[0,0.5],[1,0.5]];portConstraint=eastwest;whiteSpace=wrap;html=1;rounded=1;" parent="1" vertex="1">
          <mxGeometry x="285" y="120" width="280" height="82" as="geometry" />
        </mxCell>
      </root>
    </mxGraphModel>
  </diagram>
</mxfile>
